<?xml version="1.0" encoding="UTF-8" standalone="no"?><!DOCTYPE svg PUBLIC "-//W3C//DTD SVG 1.1//EN" "http://www.w3.org/Graphics/SVG/1.1/DTD/svg11.dtd"><svg width="100%" height="100%" viewBox="0 0 48 48" version="1.1" xmlns="http://www.w3.org/2000/svg" xmlns:xlink="http://www.w3.org/1999/xlink" xml:space="preserve" xmlns:serif="http://www.serif.com/" style="fill-rule:evenodd;clip-rule:evenodd;stroke-linejoin:round;stroke-miterlimit:2;"><path d="M11.9,43c-0.8,0 -1.483,-0.283 -2.05,-0.85c-0.567,-0.567 -0.85,-1.25 -0.85,-2.05l-0,-24.2c-0,-0.8 0.283,-1.483 0.85,-2.05c0.567,-0.567 1.25,-0.85 2.05,-0.85l4.95,-0l0,-0.85c0,-2 0.692,-3.692 2.075,-5.075c1.383,-1.383 3.075,-2.075 5.075,-2.075c2,-0 3.692,0.692 5.075,2.075c1.383,1.383 2.075,3.075 2.075,5.075l0,0.85l4.95,-0c0.8,-0 1.483,0.283 2.05,0.85c0.567,0.567 0.85,1.25 0.85,2.05l0,24.2c0,0.8 -0.283,1.483 -0.85,2.05c-0.567,0.567 -1.25,0.85 -2.05,0.85l-24.2,0Zm7.25,-30.85l-0,0.85l9.7,0l0,-0.85c0,-1.367 -0.467,-2.525 -1.4,-3.475c-0.933,-0.95 -2.083,-1.425 -3.45,-1.425c-1.367,0 -2.517,0.475 -3.45,1.425c-0.933,0.95 -1.4,2.108 -1.4,3.475Zm-7.25,28.6l24.2,0c0.167,0 0.317,-0.067 0.45,-0.2c0.133,-0.133 0.2,-0.283 0.2,-0.45l-0,-24.2c-0,-0.167 -0.067,-0.317 -0.2,-0.45c-0.133,-0.133 -0.283,-0.2 -0.45,-0.2l-4.95,0l-0,4.9c-0,0.3 -0.108,0.558 -0.325,0.775c-0.217,0.217 -0.492,0.325 -0.825,0.325c-0.333,0 -0.608,-0.108 -0.825,-0.325c-0.217,-0.217 -0.325,-0.475 -0.325,-0.775l-0,-4.9l-9.7,0l-0,4.9c-0,0.3 -0.108,0.558 -0.325,0.775c-0.217,0.217 -0.492,0.325 -0.825,0.325c-0.333,0 -0.608,-0.108 -0.825,-0.325c-0.217,-0.217 -0.325,-0.475 -0.325,-0.775l-0,-4.9l-4.95,0c-0.167,0 -0.317,0.067 -0.45,0.2c-0.133,0.133 -0.2,0.283 -0.2,0.45l-0,24.2c-0,0.167 0.067,0.317 0.2,0.45c0.133,0.133 0.283,0.2 0.45,0.2Zm-0.65,0l-0,-25.5l-0,25.5Z" style="fill:#fff;fill-rule:nonzero;"/></svg>