<?xml version="1.0" encoding="UTF-8" standalone="no"?><!DOCTYPE svg PUBLIC "-//W3C//DTD SVG 1.1//EN" "http://www.w3.org/Graphics/SVG/1.1/DTD/svg11.dtd"><svg width="100%" height="100%" viewBox="0 0 48 48" version="1.1" xmlns="http://www.w3.org/2000/svg" xmlns:xlink="http://www.w3.org/1999/xlink" xml:space="preserve" xmlns:serif="http://www.serif.com/" style="fill-rule:evenodd;clip-rule:evenodd;stroke-linejoin:round;stroke-miterlimit:2;"><path d="M41,25.55l0,12.55c0,0.8 -0.283,1.483 -0.85,2.05c-0.567,0.567 -1.25,0.85 -2.05,0.85l-28.2,0c-0.8,0 -1.483,-0.283 -2.05,-0.85c-0.567,-0.567 -0.85,-1.25 -0.85,-2.05l-0,-28.2c-0,-0.8 0.283,-1.483 0.85,-2.05c0.567,-0.567 1.25,-0.85 2.05,-0.85l12.55,-0l-0,2.25l-12.55,-0c-0.167,-0 -0.317,0.067 -0.45,0.2c-0.133,0.133 -0.2,0.283 -0.2,0.45l-0,28.2c-0,0.167 0.067,0.317 0.2,0.45c0.133,0.133 0.283,0.2 0.45,0.2l28.2,-0c0.167,-0 0.317,-0.067 0.45,-0.2c0.133,-0.133 0.2,-0.283 0.2,-0.45l-0,-12.55l2.25,0Zm-21.8,4.85l-1.6,-1.6l19.55,-19.55l-10.65,0l-0,-2.25l14.5,0l-0,14.5l-2.25,0l-0,-10.6l-19.55,19.5Z" style="fill:#fff;fill-rule:nonzero;"/></svg>